<svg width="432" height="456" viewBox="0 0 432 456" xmlns="http://www.w3.org/2000/svg">
    <rect x="0" y="0" width="432" height="456" fill="#1E1E1E" />
    <defs>
        <clipPath id="clip0">
            <path d="M72,0 L360,0 Q432,0,432,72 L432,384 Q432,456,360,456 L72,456 Q0,456,0,384 L0,72 Q0,0,72,0 Z" />
        </clipPath>
    </defs>
    <g clip-path="url(#clip0)">
        <path fill="#FEC928" d="M72,0 L360,0 Q432,0,432,72 L432,384 Q432,456,360,456 L72,456 Q0,456,0,384 L0,72 Q0,0,72,0 Z" />
        <path fill="#202020" d="M358.694,101.176 C359.452,101.192,360.21,101.208,360.991,101.224 C366.804,102.464,370.824,106.565,374.824,111.534 C375.251,112.034,375.678,112.533,376.118,113.048 C379.967,117.756,382.175,122.98,382.196,129.385 C382.219,130.382,382.219,130.382,382.244,131.398 C380.984,139.592,376.801,144.403,371.734,149.758 C370.704,150.874,370.704,150.874,369.653,152.012 C367.841,153.971,366.022,155.92,364.198,157.864 C361.619,160.618,359.054,163.391,356.488,166.162 C355.124,167.633,353.756,169.1,352.386,170.564 C351.771,171.223,351.156,171.883,350.522,172.562 C349.978,173.142,349.435,173.723,348.874,174.32 C347.559,175.692,347.559,175.692,346.859,177.489 C347.337,177.701,347.815,177.912,348.308,178.13 C348.932,178.408,349.555,178.686,350.198,178.972 C350.818,179.248,351.438,179.523,352.077,179.806 C353.729,180.578,353.729,180.578,355.256,181.558 C356.28,181.715,357.308,181.819,358.335,181.896 C358.978,181.945,359.62,181.995,360.283,182.046 C360.992,182.097,361.701,182.148,362.431,182.2 C363.188,182.257,363.944,182.314,364.723,182.373 C367.179,182.559,369.635,182.738,372.091,182.917 C373.605,183.03,375.118,183.144,376.631,183.258 C382.251,183.679,387.872,184.092,393.492,184.506 C406.047,185.438,418.602,186.371,431.538,187.331 C431.599,222.873,431.659,258.415,431.722,295.033 C417.122,294.097,402.521,293.162,387.479,292.197 C387.475,289.867,387.471,287.536,387.467,285.135 C383.943,284.909,380.419,284.683,376.788,284.45 C376.792,286.781,376.796,289.111,376.8,291.513 C375.759,291.396,375.759,291.396,374.697,291.277 C359.254,289.716,348.131,289.969,335.115,299.771 C332.63,301.611,330.031,303.147,327.388,304.675 C326.645,305.128,325.901,305.581,325.135,306.048 C319.054,309.542,313.232,312.157,306.524,313.875 C305.743,314.082,304.962,314.29,304.158,314.503 C297.685,316.203,291.18,317.768,284.661,319.268 C283.968,319.428,283.276,319.588,282.562,319.752 C281.952,319.891,281.342,320.03,280.713,320.173 C279.178,320.519,279.178,320.519,277.696,321.351 C276.038,321.444,274.376,321.486,272.712,321.504 C272.207,321.509,271.702,321.515,271.181,321.521 C269.524,321.537,267.866,321.546,266.208,321.552 C265.363,321.556,265.363,321.556,264.5,321.559 C256.954,321.58,249.408,321.52,241.848,321.149 C241.095,321.124,240.342,321.098,239.566,321.072 C233.904,320.727,229.325,318.965,224.819,314.596 C223.585,313.263,223.585,313.263,222.042,313.592 C220.219,314.084,220.219,314.084,218.589,316.487 C215.294,320.275,211.021,321.174,206.568,322.518 C205.669,322.804,204.769,323.089,203.841,323.383 C201.462,324.134,199.079,324.871,196.694,325.601 C194.268,326.348,191.847,327.115,189.425,327.879 C175.152,332.365,175.152,332.365,171.698,333.093 C172.766,327.062,174.224,321.328,175.905,315.529 C176.165,314.627,176.424,313.725,176.692,312.795 C177.24,310.901,177.789,309.007,178.34,307.115 C179.181,304.222,180.008,301.324,180.836,298.425 C181.371,296.579,181.908,294.733,182.444,292.887 C182.689,292.024,182.934,291.161,183.187,290.271 C184.469,285.918,185.732,282.856,188.386,279.434 C188.545,276.806,188.531,274.599,188.326,271.983 C188.281,271.25,188.236,270.517,188.19,269.762 C187.755,263.363,186.999,256.983,186.062,250.624 C182.965,227.831,182.866,183.972,193.996,164.594 C199.499,157.814,207.634,156.314,215.431,154.979 C219.538,154.204,222.798,152.273,226.449,150.112 C235.213,144.931,242.435,143.96,252.377,145.622 C256.869,146.356,261.381,146.778,265.887,147.227 C269.975,147.638,274.047,148.068,278.127,148.679 C295.556,152.172,295.556,152.172,311.471,147.016 C314.635,143.857,317.206,140.318,319.611,136.365 C323.815,129.488,329.454,123.836,334.704,118.065 C336.029,116.605,337.346,115.136,338.662,113.666 C350.225,100.872,350.225,100.872,358.694,101.176 Z" />
        <path fill="#FDE3C1" d="M338.031,186.658 C340.449,187.86,342.562,189.431,344.811,191.045 C352.828,196.222,361.343,196.056,370.103,196.547 C371.682,196.657,373.261,196.77,374.84,196.885 C380.636,197.289,386.432,197.64,392.228,197.997 C411.697,199.272,411.697,199.272,431.56,200.573 C431.613,231.745,431.667,262.917,431.721,295.033 C417.121,294.098,402.521,293.162,387.479,292.197 C387.475,289.867,387.471,287.536,387.467,285.135 C383.942,284.909,380.418,284.683,376.787,284.45 C376.783,282.12,376.779,279.789,376.775,277.388 C360.744,275.76,347.397,274.442,333.793,284.55 C330.081,287.197,326.129,289.352,322.217,291.6 C320.77,292.452,319.324,293.307,317.88,294.166 C316.969,294.707,316.969,294.707,316.039,295.259 C314.781,296.019,313.536,296.808,312.302,297.616 C309.844,299.105,307.275,299.7,304.546,300.342 C303.331,300.642,302.116,300.942,300.901,301.243 C300.241,301.404,299.58,301.566,298.9,301.732 C294.802,302.746,290.717,303.814,286.63,304.876 C285.405,305.192,285.405,305.192,284.156,305.513 C283.38,305.714,282.605,305.915,281.806,306.122 C281.118,306.299,280.431,306.477,279.723,306.66 C278.278,307.059,276.849,307.521,275.434,308.028 C272.927,308.747,270.798,308.83,268.182,308.748 C267.242,308.723,266.301,308.697,265.332,308.67 C264.34,308.634,263.347,308.597,262.324,308.559 C261.296,308.524,260.268,308.49,259.239,308.455 C257.19,308.384,255.14,308.307,253.09,308.225 C250.552,308.127,248.015,308.053,245.478,307.986 C244.133,307.935,242.789,307.882,241.444,307.827 C240.544,307.809,240.544,307.809,239.626,307.791 C235.64,307.583,233.448,306.42,230.376,303.311 C226.684,298.235,226.278,295.276,226.327,288.915 C226.606,285.38,227.464,283.634,229.576,281.192 C233.765,277.795,236.647,277.125,241.841,277.317 C242.375,277.335,242.909,277.353,243.459,277.371 C245.169,277.429,246.88,277.492,248.59,277.556 C252.93,277.716,257.267,277.852,261.605,277.949 C262.432,277.972,263.26,277.994,264.113,278.018 C270.009,278.026,275.109,276.558,280.619,274.534 C281.455,274.25,282.291,273.965,283.152,273.672 C287.479,272.124,290.685,270.839,293.62,266.761 C294.156,266.059,294.156,266.059,294.703,265.343 C295.933,263.73,297.133,262.091,298.329,260.442 C298.971,259.563,298.971,259.563,299.625,258.665 C303.538,253.281,307.352,247.807,311.121,242.284 C309.91,238.806,308.019,236.534,305.768,233.831 C305.09,233.011,304.412,232.19,303.713,231.344 C302.096,229.332,302.096,229.332,300.419,228.358 C300.831,224.854,302.297,223.297,304.416,220.941 C305.105,220.169,305.793,219.398,306.503,218.603 C307.26,217.77,308.018,216.937,308.776,216.104 C309.551,215.247,310.326,214.389,311.101,213.531 C312.725,211.736,314.354,209.947,315.985,208.162 C318.077,205.871,320.152,203.562,322.223,201.247 C323.818,199.471,325.424,197.707,327.032,195.947 C327.802,195.1,328.568,194.249,329.33,193.394 C330.396,192.201,331.477,191.027,332.56,189.854 C333.171,189.18,333.783,188.507,334.412,187.813 C336.196,186.516,336.196,186.516,338.031,186.658 Z" />
        <path fill="#FDE2C0" d="M257.495,159.899 C259.102,160.022,260.709,160.141,262.316,160.258 C272.955,161.064,283.58,162.231,294.207,163.522 C294.208,164.104,294.209,164.687,294.21,165.287 C293.185,166.327,293.185,166.327,291.711,167.582 C289.26,169.824,287.185,172.222,285.161,174.976 C273.74,190.492,264.038,196.336,245.982,197.487 C243.587,197.609,241.189,197.678,238.789,197.746 C235.989,197.858,233.208,198.112,230.424,198.379 C229.495,198.468,228.566,198.557,227.608,198.648 C226.953,198.714,226.297,198.779,225.622,198.847 C225.517,200.573,225.517,200.573,225.411,202.333 C225.062,206.428,224.434,210.399,223.697,214.395 C223.584,215.006,223.472,215.618,223.356,216.247 C223.119,217.53,222.881,218.812,222.643,220.094 C220.618,231.074,218.973,241.853,218.56,253.207 C218.189,262.428,216.327,268.193,210.762,274.594 C207.534,277.749,205.002,278.734,200.588,278.451 C200.028,273.615,199.477,268.777,198.934,263.939 C198.749,262.299,198.561,260.658,198.371,259.019 C196.398,241.993,196.8,226.662,198.95,209.989 C199.138,208.513,199.326,207.036,199.513,205.559 C199.652,204.478,199.652,204.478,199.793,203.374 C200.302,199.174,200.525,195.125,200.459,190.834 C200.489,185.335,200.521,180.584,203.464,176.242 C209.945,170.542,218.488,167.79,226.249,164.997 C229.006,163.981,231.464,162.584,234.028,161.074 C241.326,157.565,249.614,159.196,257.495,159.899 Z" />
        <path fill="#F68EA3" d="M336.873,136.245 C339.174,137.666,340.771,139.024,342.566,141.251 C343.039,141.833,343.512,142.415,343.999,143.015 C344.484,143.621,344.969,144.226,345.468,144.85 C346.213,145.77,346.213,145.77,346.973,146.709 C348.195,148.219,349.413,149.732,350.628,151.25 C349.42,154.601,347.409,156.826,345.197,159.275 C344.795,159.727,344.392,160.179,343.978,160.645 C342.628,162.16,341.272,163.669,339.916,165.177 C338.947,166.261,337.978,167.346,337.009,168.431 C328.155,178.334,319.256,188.182,310.348,198.019 C303.767,205.285,297.208,212.576,290.675,219.899 C286.075,225.052,281.451,230.176,276.81,235.28 C274.041,238.326,271.284,241.383,268.551,244.473 C265.977,247.383,263.374,250.255,260.748,253.103 C259.793,254.15,258.849,255.209,257.917,256.282 C252.938,261.997,249.181,265.585,241.731,265.371 C240.663,265.291,239.594,265.197,238.525,265.087 C235.009,264.748,232.157,265.288,228.788,266.136 C228.747,264.048,228.75,261.983,228.777,259.901 C228.775,258.744,228.773,257.586,228.771,256.394 C229.149,253.363,229.931,252.279,231.997,250.51 C234.864,247.91,237.553,245.14,240.196,242.247 C240.618,241.786,241.04,241.325,241.475,240.851 C242.853,239.341,244.23,237.828,245.606,236.316 C246.605,235.222,247.603,234.129,248.602,233.035 C251.297,230.083,253.991,227.127,256.684,224.171 C259.504,221.077,262.326,217.985,265.148,214.892 C270.485,209.043,275.821,203.192,281.155,197.34 C287.231,190.675,293.309,184.012,299.388,177.349 C311.885,163.651,324.38,149.949,336.873,136.245 Z" />
        <path fill="#202020" d="M99,71.25 C124.74,71.25,150.48,71.25,177,71.25 C177,75.9162,177,80.5824,177,85.39 C166.957,85.4105,156.913,85.4262,146.87,85.4358 C142.207,85.4405,137.544,85.4467,132.881,85.4567 C128.385,85.4663,123.889,85.4716,119.393,85.4739 C117.673,85.4755,115.954,85.4787,114.234,85.4835 C111.835,85.4899,109.435,85.4908,107.036,85.4904 C106.318,85.4935,105.599,85.4967,104.859,85.5 C99.9549,85.4908,99.9549,85.4908,99,84.5063 C99,80.1317,99,75.7571,99,71.25 Z" />
        <path fill="#202020" d="M190,71.25 C215.74,71.25,241.48,71.25,268,71.25 C268,75.9162,268,80.5824,268,85.39 C257.957,85.4105,247.913,85.4262,237.87,85.4358 C233.207,85.4405,228.544,85.4467,223.881,85.4567 C219.385,85.4663,214.889,85.4716,210.393,85.4739 C208.673,85.4755,206.954,85.4787,205.234,85.4835 C202.835,85.4899,200.435,85.4908,198.036,85.4904 C197.318,85.4935,196.599,85.4967,195.859,85.5 C190.955,85.4908,190.955,85.4908,190,84.5063 C190,80.1317,190,75.7571,190,71.25 Z" />
        <path fill="#202020" d="M46.9343,338.33 C48.4154,338.333,48.4154,338.333,49.9265,338.336 C50.7414,338.336,50.7414,338.336,51.5728,338.336 C53.3761,338.337,55.1794,338.344,56.9828,338.351 C58.2301,338.352,59.4774,338.353,60.7248,338.354 C64.0136,338.358,67.3024,338.367,70.5913,338.376 C73.945,338.385,77.2986,338.39,80.6523,338.394 C87.237,338.404,93.8216,338.419,100.406,338.438 C100.406,343.14,100.406,347.843,100.406,352.688 C81.7509,352.688,63.0956,352.688,43.875,352.688 C43.875,338.478,43.875,338.478,46.9343,338.33 Z" />
        <path fill="#202020" d="M90.2894,294 C91.6321,294.002,92.9747,294.004,94.3581,294.006 C96.6324,294.006,96.6324,294.006,98.9527,294.006 C100.603,294.011,102.253,294.015,103.953,294.02 C105.649,294.021,107.346,294.022,109.042,294.023 C113.514,294.027,117.986,294.035,122.458,294.045 C127.018,294.054,131.579,294.058,136.139,294.062 C145.093,294.071,154.046,294.087,163,294.104 C163,298.69,163,303.276,163,308 C137.59,308,112.18,308,86,308 C86,294.148,86,294.148,90.2894,294 Z" />
        <path fill="#202020" d="M46.6481,249.375 C47.5162,249.377,48.3842,249.379,49.2786,249.381 C50.749,249.381,50.749,249.381,52.2491,249.381 C53.3159,249.386,54.3827,249.39,55.4819,249.395 C56.5786,249.397,57.6752,249.398,58.7718,249.399 C61.6631,249.402,64.5543,249.411,67.4455,249.421 C70.3938,249.43,73.3422,249.434,76.2905,249.438 C82.0791,249.448,87.8677,249.463,93.6562,249.481 C93.6562,254.149,93.6562,258.816,93.6562,263.625 C77.2284,263.625,60.8006,263.625,43.875,263.625 C43.875,249.526,43.875,249.526,46.6481,249.375 Z" />
        <path fill="#202020" d="M103.12,249 C104.096,249.002,105.073,249.004,106.079,249.006 C107.733,249.006,107.733,249.006,109.42,249.006 C110.62,249.011,111.82,249.016,113.057,249.021 C114.291,249.023,115.524,249.024,116.758,249.025 C120.01,249.029,123.263,249.038,126.515,249.048 C129.832,249.058,133.148,249.062,136.465,249.066 C142.977,249.076,149.488,249.093,156,249.112 C156,254.025,156,258.938,156,264 C137.52,264,119.04,264,100,264 C100,249.159,100,249.159,103.12,249 Z" />
        <path fill="#202020" d="M98.7188,204.844 C120.994,204.844,143.269,204.844,166.219,204.844 C166.219,209.511,166.219,214.179,166.219,218.987 C157.581,219.007,148.944,219.024,140.306,219.033 C136.296,219.038,132.285,219.044,128.275,219.054 C124.408,219.064,120.541,219.069,116.674,219.071 C114.473,219.074,112.273,219.081,110.073,219.088 C108.744,219.088,107.415,219.088,106.046,219.088 C104.28,219.091,104.28,219.091,102.479,219.094 C99.8253,218.987,99.8253,218.987,98.7188,218.103 C98.7188,213.728,98.7188,209.352,98.7188,204.844 Z" />
        <path fill="#202020" d="M43.875,160.312 C61.9734,160.312,80.0719,160.312,98.7188,160.312 C98.7188,164.98,98.7188,169.647,98.7188,174.456 C91.7008,174.476,84.6828,174.492,77.6648,174.502 C74.4064,174.507,71.148,174.513,67.8896,174.523 C64.7475,174.532,61.6054,174.538,58.4633,174.54 C56.6757,174.543,54.8882,174.549,53.1007,174.556 C52.0207,174.556,50.9408,174.556,49.8281,174.557 C48.3936,174.559,48.3936,174.559,46.9301,174.563 C44.7741,174.456,44.7741,174.456,43.875,173.572 C43.875,169.197,43.875,164.821,43.875,160.312 Z" />
        <path fill="#202020" d="M116,160.312 C132.5,160.312,149,160.312,166,160.312 C166,164.98,166,169.647,166,174.456 C159.602,174.476,153.204,174.492,146.806,174.502 C143.835,174.507,140.864,174.513,137.894,174.523 C135.029,174.532,132.164,174.538,129.3,174.54 C127.67,174.543,126.041,174.549,124.411,174.556 C123.426,174.556,122.442,174.556,121.427,174.557 C120.12,174.559,120.12,174.559,118.785,174.563 C116.82,174.456,116.82,174.456,116,173.572 C116,169.197,116,164.821,116,160.312 Z" />
        <path fill="#202020" d="M371.725,277.064 C391.516,278.333,411.307,279.601,431.698,280.909 C431.706,285.57,431.714,290.231,431.722,295.033 C411.584,293.743,391.446,292.452,370.697,291.122 C371.036,286.483,371.376,281.844,371.725,277.064 Z" />
        <path fill="#202020" d="M86,116 C102.83,116,119.66,116,137,116 C137,120.586,137,125.171,137,129.896 C129.898,129.917,122.795,129.933,115.693,129.943 C113.274,129.948,110.856,129.954,108.438,129.961 C104.97,129.972,101.503,129.977,98.0352,129.98 C96.9466,129.985,95.8581,129.989,94.7366,129.994 C93.2351,129.994,93.2351,129.994,91.7034,129.994 C90.3743,129.997,90.3743,129.997,89.0184,130 C87,129.896,87,129.896,86,129.027 C86,124.728,86,120.429,86,116 Z" />
        <path fill="#202020" d="M149,116 C174.41,116,199.82,116,226,116 C226,120.586,226,125.171,226,129.896 C215.277,129.917,204.553,129.933,193.83,129.943 C190.179,129.948,186.528,129.954,182.877,129.961 C177.641,129.972,172.406,129.977,167.171,129.98 C165.527,129.985,163.884,129.989,162.191,129.994 C159.924,129.994,159.924,129.994,157.611,129.994 C155.604,129.997,155.604,129.997,153.557,130 C150.51,129.896,150.51,129.896,149,129.027 C149,124.728,149,120.429,149,116 Z" />
        <path fill="#202020" d="M43.875,71.25 C58.9106,71.25,73.9463,71.25,89.4375,71.25 C89.4375,75.9174,89.4375,80.5848,89.4375,85.3937 C83.0923,85.4155,76.7471,85.4316,70.4019,85.4423 C68.2414,85.4467,66.0809,85.4528,63.9205,85.4604 C60.8226,85.4711,57.7248,85.4761,54.627,85.48 C53.6545,85.4846,52.6821,85.4891,51.6801,85.4938 C50.3388,85.4939,50.3388,85.4939,48.9703,85.4941 C47.783,85.497,47.783,85.497,46.5716,85.5 C44.7684,85.3937,44.7684,85.3937,43.875,84.5097 C43.875,80.134,43.875,75.7583,43.875,71.25 Z" />
        <path fill="#E0EAF3" d="M362.008,115.788 C364.127,117.693,364.127,117.693,366.115,120.079 C367.117,121.237,367.117,121.237,368.139,122.419 C369.72,125.227,370.262,127.128,370.094,130.402 C369.251,133.858,367,135.814,364.716,138.029 C364.243,138.515,363.771,139,363.285,139.5 C362.126,140.687,360.948,141.85,359.766,143.008 C357.443,141.66,355.854,140.211,354.073,138.002 C353.6,137.42,353.127,136.838,352.64,136.238 C352.155,135.632,351.67,135.027,351.171,134.403 C350.674,133.789,350.178,133.176,349.666,132.544 C348.445,131.034,347.227,129.521,346.012,128.003 C347.396,124.6,349.367,122.326,351.718,119.818 C352.098,119.402,352.478,118.987,352.869,118.559 C356.166,114.993,357.407,114.089,362.008,115.788 Z" />
        <path fill="#202020" d="M47.5254,293.906 C48.7707,293.906,50.0159,293.911,51.2611,293.92 C51.9154,293.922,52.5697,293.923,53.2438,293.924 C55.3416,293.929,57.4393,293.94,59.5371,293.951 C60.956,293.956,62.3749,293.96,63.7938,293.963 C67.2792,293.972,70.7645,293.99,74.25,294.007 C74.25,298.676,74.25,303.345,74.25,308.156 C64.2262,308.156,54.2025,308.156,43.875,308.156 C43.875,294.037,43.875,294.037,47.5254,293.906 Z" />
        <path fill="#202020" d="M43.875,204.844 C57.7969,204.844,71.7188,204.844,86.0625,204.844 C86.0625,209.513,86.0625,214.183,86.0625,218.994 C80.2426,219.014,74.423,219.031,68.6031,219.042 C66.6217,219.047,64.6404,219.053,62.659,219.06 C59.8172,219.071,56.9754,219.076,54.1335,219.08 C52.7968,219.087,52.7968,219.087,51.4331,219.094 C49.3039,219.094,47.1748,219.048,45.0469,218.994 C44.6602,218.702,44.2734,218.41,43.875,218.109 C43.875,213.732,43.875,209.354,43.875,204.844 Z" />
        <path fill="#202020" d="M43.875,115.781 C55.2909,115.781,66.7069,115.781,78.4688,115.781 C78.4688,120.451,78.4688,125.12,78.4688,129.931 C73.6965,129.951,68.9243,129.969,64.152,129.98 C62.5273,129.984,60.9026,129.99,59.2779,129.998 C56.9476,130.008,54.6173,130.014,52.287,130.017 C51.1909,130.024,51.1909,130.024,50.0727,130.031 C48.3267,130.031,46.5809,129.986,44.8359,129.931 C44.5188,129.639,44.2017,129.347,43.875,129.047 C43.875,124.669,43.875,120.292,43.875,115.781 Z" />
        <path fill="#F08A9F" d="M215.095,287.326 C215.395,289.406,215.644,291.467,215.868,293.554 C216.012,294.71,216.155,295.867,216.303,297.058 C216.247,300.323,215.292,301.89,213.426,304.183 C209.567,307.965,205.274,309.295,200.357,310.655 C199.525,310.907,198.692,311.159,197.835,311.418 C191.846,313.199,191.846,313.199,189.969,313.079 C191.173,305.863,193.195,299.107,195.273,292.234 C195.9,292.188,196.527,292.141,197.173,292.094 C202.832,291.579,209.858,286.99,215.095,287.326 Z" />
        <path fill="#FEC928" d="M291.279,235.716 C293.044,237.577,294.809,239.438,296.628,241.355 C294.375,245.228,291.981,248.912,289.449,252.536 C288.918,253.317,288.918,253.317,288.377,254.113 C284.779,259.256,280.709,261.114,275.309,263.104 C274.776,263.311,274.244,263.517,273.695,263.73 C270.842,264.791,268.456,265.459,265.397,264.952 C268.461,260.882,271.671,257.073,275.072,253.383 C275.772,252.618,275.772,252.618,276.486,251.838 C277.958,250.23,279.432,248.627,280.906,247.023 C281.913,245.925,282.919,244.827,283.925,243.729 C286.374,241.055,288.826,238.385,291.279,235.716 Z" />
        <path fill="#FEC928" d="M252.335,209.387 C248.559,214.436,244.459,219.001,240.251,223.563 C239.582,224.292,238.913,225.021,238.223,225.772 C236.585,227.556,234.946,229.338,233.304,231.117 C232.471,228.187,232.603,227.195,233.123,224.337 C233.331,223.168,233.331,223.168,233.543,221.976 C233.769,220.761,233.769,220.761,234,219.521 C234.147,218.7,234.295,217.88,234.447,217.034 C234.812,215.007,235.183,212.983,235.558,210.959 C237.638,210.646,239.72,210.339,241.801,210.035 C242.388,209.947,242.974,209.858,243.578,209.767 C246.534,209.339,249.315,209.025,252.335,209.387 Z" />
    </g>
</svg>